<?xml version="1.0" encoding="UTF-8"?>
<svg xmlns="http://www.w3.org/2000/svg" xmlns:xlink="http://www.w3.org/1999/xlink" width="956px" height="956px" viewBox="0 0 723 723" version="1.1">
<g id="surface1">
<path style=" stroke:none;fill-rule:nonzero;fill:rgb(97.647059%,65.882355%,26.666668%);fill-opacity:1;" d="M 324 15 C 348.75 15 373.5 15 399 15 C 399 15.988281 399 16.980469 399 18 C 405.929688 18 412.859375 18 420 18 C 420 18.988281 420 19.980469 420 21 C 424.949219 21 429.898438 21 435 21 C 435 21.988281 435 22.980469 435 24 C 438.960938 24 442.921875 24 447 24 C 447 24.988281 447 25.980469 447 27 C 450.960938 27 454.921875 27 459 27 C 459 27.988281 459 28.980469 459 30 C 461.96875 30 464.941406 30 468 30 C 468 30.988281 468 31.980469 468 33 C 470.96875 33 473.941406 33 477 33 C 477 33.988281 477 34.980469 477 36 C 479.96875 36 482.941406 36 486 36 C 486 36.988281 486 37.980469 486 39 C 487.980469 39 489.960938 39 492 39 C 492 39.988281 492 40.980469 492 42 C 494.96875 42 497.941406 42 501 42 C 501 42.988281 501 43.980469 501 45 C 502.980469 45 504.960938 45 507 45 C 507 45.988281 507 46.980469 507 48 C 508.980469 48 510.960938 48 513 48 C 513 48.988281 513 49.980469 513 51 C 514.980469 51 516.960938 51 519 51 C 519 51.988281 519 52.980469 519 54 C 520.980469 54 522.960938 54 525 54 C 525 54.988281 525 55.980469 525 57 C 526.980469 57 528.960938 57 531 57 C 531 57.988281 531 58.980469 531 60 C 532.980469 60 534.960938 60 537 60 C 537 60.988281 537 61.980469 537 63 C 538.980469 63 540.960938 63 543 63 C 543 63.988281 543 64.980469 543 66 C 544.980469 66 546.960938 66 549 66 C 549 66.988281 549 67.980469 549 69 C 549.988281 69 550.980469 69 552 69 C 552 69.988281 552 70.980469 552 72 C 553.980469 72 555.960938 72 558 72 C 558 72.988281 558 73.980469 558 75 C 559.980469 75 561.960938 75 564 75 C 564 75.988281 564 76.980469 564 78 C 564.988281 78 565.980469 78 567 78 C 567 78.988281 567 79.980469 567 81 C 567.988281 81 568.980469 81 570 81 C 570 81.988281 570 82.980469 570 84 C 571.980469 84 573.960938 84 576 84 C 576 84.988281 576 85.980469 576 87 C 576.988281 87 577.980469 87 579 87 C 579 87.988281 579 88.980469 579 90 C 579.988281 90 580.980469 90 582 90 C 582 90.988281 582 91.980469 582 93 C 583.980469 93 585.960938 93 588 93 C 588 93.988281 588 94.980469 588 96 C 588.988281 96 589.980469 96 591 96 C 591 96.988281 591 97.980469 591 99 C 591.988281 99 592.980469 99 594 99 C 594 99.988281 594 100.980469 594 102 C 594.988281 102 595.980469 102 597 102 C 597 102.988281 597 103.980469 597 105 C 598.980469 105 600.960938 105 603 105 C 603 105.988281 603 106.980469 603 108 C 603.988281 108 604.980469 108 606 108 C 606 108.988281 606 109.980469 606 111 C 606.988281 111 607.980469 111 609 111 C 609 111.988281 609 112.980469 609 114 C 609.988281 114 610.980469 114 612 114 C 612 114.988281 612 115.980469 612 117 C 612.988281 117 613.980469 117 615 117 C 615 117.988281 615 118.980469 615 120 C 615.988281 120 616.980469 120 618 120 C 618 120.988281 618 121.980469 618 123 C 618.988281 123 619.980469 123 621 123 C 621 124.980469 621 126.960938 621 129 C 621.988281 129 622.980469 129 624 129 C 624 129.988281 624 130.980469 624 132 C 624.988281 132 625.980469 132 627 132 C 627 132.988281 627 133.980469 627 135 C 627.988281 135 628.980469 135 630 135 C 630 135.988281 630 136.980469 630 138 C 630.988281 138 631.980469 138 633 138 C 633 139.980469 633 141.960938 633 144 C 633.988281 144 634.980469 144 636 144 C 636 144.988281 636 145.980469 636 147 C 636.988281 147 637.980469 147 639 147 C 639 147.988281 639 148.980469 639 150 C 639.988281 150 640.980469 150 642 150 C 642 151.980469 642 153.960938 642 156 C 642.988281 156 643.980469 156 645 156 C 645 156.988281 645 157.980469 645 159 C 645.988281 159 646.980469 159 648 159 C 648 160.980469 648 162.960938 648 165 C 648.988281 165 649.980469 165 651 165 C 651 165.988281 651 166.980469 651 168 C 651.988281 168 652.980469 168 654 168 C 654 169.980469 654 171.960938 654 174 C 654.988281 174 655.980469 174 657 174 C 657 175.980469 657 177.960938 657 180 C 657.988281 180 658.980469 180 660 180 C 660 180.988281 660 181.980469 660 183 C 660.988281 183 661.980469 183 663 183 C 663 184.980469 663 186.960938 663 189 C 663.988281 189 664.980469 189 666 189 C 666 190.980469 666 192.960938 666 195 C 666.988281 195 667.980469 195 669 195 C 669 196.980469 669 198.960938 669 201 C 669.988281 201 670.980469 201 672 201 C 672 202.980469 672 204.960938 672 207 C 672.988281 207 673.980469 207 675 207 C 675 208.980469 675 210.960938 675 213 C 675.988281 213 676.980469 213 678 213 C 678 214.980469 678 216.960938 678 219 C 678.988281 219 679.980469 219 681 219 C 681 221.96875 681 224.941406 681 228 C 681.988281 228 682.980469 228 684 228 C 684 229.980469 684 231.960938 684 234 C 684.988281 234 685.980469 234 687 234 C 687 236.96875 687 239.941406 687 243 C 687.988281 243 688.980469 243 690 243 C 690 245.96875 690 248.941406 690 252 C 690.988281 252 691.980469 252 693 252 C 693 254.96875 693 257.941406 693 261 C 693.988281 261 694.980469 261 696 261 C 696 264.960938 696 268.921875 696 273 C 696.988281 273 697.980469 273 699 273 C 699 275.96875 699 278.941406 699 282 C 699.988281 282 700.980469 282 702 282 C 702 286.949219 702 291.898438 702 297 C 702.988281 297 703.980469 297 705 297 C 705 302.941406 705 308.878906 705 315 C 705.988281 315 706.980469 315 708 315 C 708 345.691406 708 376.378906 708 408 C 707.011719 408 706.019531 408 705 408 C 705 414.929688 705 421.859375 705 429 C 704.011719 429 703.019531 429 702 429 C 702 432.960938 702 436.921875 702 441 C 701.011719 441 700.019531 441 699 441 C 699 444.960938 699 448.921875 699 453 C 698.011719 453 697.019531 453 696 453 C 696 456.960938 696 460.921875 696 465 C 695.011719 465 694.019531 465 693 465 C 693 467.96875 693 470.941406 693 474 C 692.011719 474 691.019531 474 690 474 C 690 476.96875 690 479.941406 690 483 C 689.011719 483 688.019531 483 687 483 C 687 484.980469 687 486.960938 687 489 C 686.011719 489 685.019531 489 684 489 C 684 491.96875 684 494.941406 684 498 C 683.011719 498 682.019531 498 681 498 C 681 499.980469 681 501.960938 681 504 C 680.011719 504 679.019531 504 678 504 C 678 505.980469 678 507.960938 678 510 C 677.011719 510 676.019531 510 675 510 C 675 511.980469 675 513.960938 675 516 C 674.011719 516 673.019531 516 672 516 C 672 517.980469 672 519.960938 672 522 C 671.011719 522 670.019531 522 669 522 C 669 523.980469 669 525.960938 669 528 C 668.011719 528 667.019531 528 666 528 C 666 529.980469 666 531.960938 666 534 C 665.011719 534 664.019531 534 663 534 C 663 535.980469 663 537.960938 663 540 C 662.011719 540 661.019531 540 660 540 C 660 541.980469 660 543.960938 660 546 C 659.011719 546 658.019531 546 657 546 C 657 547.980469 657 549.960938 657 552 C 656.011719 552 655.019531 552 654 552 C 654 553.980469 654 555.960938 654 558 C 653.011719 558 652.019531 558 651 558 C 651 558.988281 651 559.980469 651 561 C 650.011719 561 649.019531 561 648 561 C 648 562.980469 648 564.960938 648 567 C 647.011719 567 646.019531 567 645 567 C 645 567.988281 645 568.980469 645 570 C 644.011719 570 643.019531 570 642 570 C 642 571.980469 642 573.960938 642 576 C 641.011719 576 640.019531 576 639 576 C 639 576.988281 639 577.980469 639 579 C 638.011719 579 637.019531 579 636 579 C 636 579.988281 636 580.980469 636 582 C 635.011719 582 634.019531 582 633 582 C 633 583.980469 633 585.960938 633 588 C 632.011719 588 631.019531 588 630 588 C 630 588.988281 630 589.980469 630 591 C 629.011719 591 628.019531 591 627 591 C 627 591.988281 627 592.980469 627 594 C 626.011719 594 625.019531 594 624 594 C 624 594.988281 624 595.980469 624 597 C 623.011719 597 622.019531 597 621 597 C 621 597.988281 621 598.980469 621 600 C 620.011719 600 619.019531 600 618 600 C 618 600.988281 618 601.980469 618 603 C 617.011719 603 616.019531 603 615 603 C 615 604.980469 615 606.960938 615 609 C 614.011719 609 613.019531 609 612 609 C 612 609.988281 612 610.980469 612 612 C 611.011719 612 610.019531 612 609 612 C 609 612.988281 609 613.980469 609 615 C 608.011719 615 607.019531 615 606 615 C 606 615.988281 606 616.980469 606 618 C 604.019531 618 602.039062 618 600 618 C 600 618.988281 600 619.980469 600 621 C 599.011719 621 598.019531 621 597 621 C 597 621.988281 597 622.980469 597 624 C 596.011719 624 595.019531 624 594 624 C 594 624.988281 594 625.980469 594 627 C 593.011719 627 592.019531 627 591 627 C 591 627.988281 591 628.980469 591 630 C 590.011719 630 589.019531 630 588 630 C 588 630.988281 588 631.980469 588 633 C 586.019531 633 584.039062 633 582 633 C 582 633.988281 582 634.980469 582 636 C 581.011719 636 580.019531 636 579 636 C 579 636.988281 579 637.980469 579 639 C 578.011719 639 577.019531 639 576 639 C 576 639.988281 576 640.980469 576 642 C 574.019531 642 572.039062 642 570 642 C 570 642.988281 570 643.980469 570 645 C 569.011719 645 568.019531 645 567 645 C 567 645.988281 567 646.980469 567 648 C 565.019531 648 563.039062 648 561 648 C 561 648.988281 561 649.980469 561 651 C 560.011719 651 559.019531 651 558 651 C 558 651.988281 558 652.980469 558 654 C 556.019531 654 554.039062 654 552 654 C 552 654.988281 552 655.980469 552 657 C 551.011719 657 550.019531 657 549 657 C 549 657.988281 549 658.980469 549 660 C 547.019531 660 545.039062 660 543 660 C 543 660.988281 543 661.980469 543 663 C 541.019531 663 539.039062 663 537 663 C 537 663.988281 537 664.980469 537 666 C 535.019531 666 533.039062 666 531 666 C 531 666.988281 531 667.980469 531 669 C 529.019531 669 527.039062 669 525 669 C 525 669.988281 525 670.980469 525 672 C 523.019531 672 521.039062 672 519 672 C 519 672.988281 519 673.980469 519 675 C 517.019531 675 515.039062 675 513 675 C 513 675.988281 513 676.980469 513 678 C 511.019531 678 509.039062 678 507 678 C 507 678.988281 507 679.980469 507 681 C 505.019531 681 503.039062 681 501 681 C 501 681.988281 501 682.980469 501 684 C 498.03125 684 495.058594 684 492 684 C 492 684.988281 492 685.980469 492 687 C 490.019531 687 488.039062 687 486 687 C 486 687.988281 486 688.980469 486 690 C 483.03125 690 480.058594 690 477 690 C 477 690.988281 477 691.980469 477 693 C 474.03125 693 471.058594 693 468 693 C 468 693.988281 468 694.980469 468 696 C 465.03125 696 462.058594 696 459 696 C 459 696.988281 459 697.980469 459 699 C 455.039062 699 451.078125 699 447 699 C 447 699.988281 447 700.980469 447 702 C 443.039062 702 439.078125 702 435 702 C 435 702.988281 435 703.980469 435 705 C 430.050781 705 425.101562 705 420 705 C 420 705.988281 420 706.980469 420 708 C 413.070312 708 406.140625 708 399 708 C 399 708.988281 399 709.980469 399 711 C 374.25 711 349.5 711 324 711 C 324 710.011719 324 709.019531 324 708 C 317.070312 708 310.140625 708 303 708 C 303 707.011719 303 706.019531 303 705 C 298.050781 705 293.101562 705 288 705 C 288 704.011719 288 703.019531 288 702 C 284.039062 702 280.078125 702 276 702 C 276 701.011719 276 700.019531 276 699 C 272.039062 699 268.078125 699 264 699 C 264 698.011719 264 697.019531 264 696 C 261.03125 696 258.058594 696 255 696 C 255 695.011719 255 694.019531 255 693 C 252.03125 693 249.058594 693 246 693 C 246 692.011719 246 691.019531 246 690 C 243.03125 690 240.058594 690 237 690 C 237 689.011719 237 688.019531 237 687 C 235.019531 687 233.039062 687 231 687 C 231 686.011719 231 685.019531 231 684 C 228.03125 684 225.058594 684 222 684 C 222 683.011719 222 682.019531 222 681 C 220.019531 681 218.039062 681 216 681 C 216 680.011719 216 679.019531 216 678 C 214.019531 678 212.039062 678 210 678 C 210 677.011719 210 676.019531 210 675 C 208.019531 675 206.039062 675 204 675 C 204 674.011719 204 673.019531 204 672 C 202.019531 672 200.039062 672 198 672 C 198 671.011719 198 670.019531 198 669 C 196.019531 669 194.039062 669 192 669 C 192 668.011719 192 667.019531 192 666 C 190.019531 666 188.039062 666 186 666 C 186 665.011719 186 664.019531 186 663 C 184.019531 663 182.039062 663 180 663 C 180 662.011719 180 661.019531 180 660 C 178.019531 660 176.039062 660 174 660 C 174 659.011719 174 658.019531 174 657 C 173.011719 657 172.019531 657 171 657 C 171 656.011719 171 655.019531 171 654 C 169.019531 654 167.039062 654 165 654 C 165 653.011719 165 652.019531 165 651 C 164.011719 651 163.019531 651 162 651 C 162 650.011719 162 649.019531 162 648 C 160.019531 648 158.039062 648 156 648 C 156 647.011719 156 646.019531 156 645 C 155.011719 645 154.019531 645 153 645 C 153 644.011719 153 643.019531 153 642 C 151.019531 642 149.039062 642 147 642 C 147 641.011719 147 640.019531 147 639 C 146.011719 639 145.019531 639 144 639 C 144 638.011719 144 637.019531 144 636 C 143.011719 636 142.019531 636 141 636 C 141 635.011719 141 634.019531 141 633 C 139.019531 633 137.039062 633 135 633 C 135 632.011719 135 631.019531 135 630 C 134.011719 630 133.019531 630 132 630 C 132 629.011719 132 628.019531 132 627 C 131.011719 627 130.019531 627 129 627 C 129 626.011719 129 625.019531 129 624 C 128.011719 624 127.019531 624 126 624 C 126 623.011719 126 622.019531 126 621 C 125.011719 621 124.019531 621 123 621 C 123 620.011719 123 619.019531 123 618 C 121.019531 618 119.039062 618 117 618 C 117 617.011719 117 616.019531 117 615 C 116.011719 615 115.019531 615 114 615 C 114 614.011719 114 613.019531 114 612 C 113.011719 612 112.019531 612 111 612 C 111 611.011719 111 610.019531 111 609 C 110.011719 609 109.019531 609 108 609 C 108 608.011719 108 607.019531 108 606 C 107.011719 606 106.019531 606 105 606 C 105 604.019531 105 602.039062 105 600 C 104.011719 600 103.019531 600 102 600 C 102 599.011719 102 598.019531 102 597 C 101.011719 597 100.019531 597 99 597 C 99 596.011719 99 595.019531 99 594 C 98.011719 594 97.019531 594 96 594 C 96 593.011719 96 592.019531 96 591 C 95.011719 591 94.019531 591 93 591 C 93 590.011719 93 589.019531 93 588 C 92.011719 588 91.019531 588 90 588 C 90 586.019531 90 584.039062 90 582 C 89.011719 582 88.019531 582 87 582 C 87 581.011719 87 580.019531 87 579 C 86.011719 579 85.019531 579 84 579 C 84 578.011719 84 577.019531 84 576 C 83.011719 576 82.019531 576 81 576 C 81 574.019531 81 572.039062 81 570 C 80.011719 570 79.019531 570 78 570 C 78 569.011719 78 568.019531 78 567 C 77.011719 567 76.019531 567 75 567 C 75 565.019531 75 563.039062 75 561 C 74.011719 561 73.019531 561 72 561 C 72 560.011719 72 559.019531 72 558 C 71.011719 558 70.019531 558 69 558 C 69 556.019531 69 554.039062 69 552 C 68.011719 552 67.019531 552 66 552 C 66 550.019531 66 548.039062 66 546 C 65.011719 546 64.019531 546 63 546 C 63 544.019531 63 542.039062 63 540 C 62.011719 540 61.019531 540 60 540 C 60 538.019531 60 536.039062 60 534 C 59.011719 534 58.019531 534 57 534 C 57 533.011719 57 532.019531 57 531 C 56.011719 531 55.019531 531 54 531 C 54 529.019531 54 527.039062 54 525 C 53.011719 525 52.019531 525 51 525 C 51 523.019531 51 521.039062 51 519 C 50.011719 519 49.019531 519 48 519 C 48 517.019531 48 515.039062 48 513 C 47.011719 513 46.019531 513 45 513 C 45 510.03125 45 507.058594 45 504 C 44.011719 504 43.019531 504 42 504 C 42 502.019531 42 500.039062 42 498 C 41.011719 498 40.019531 498 39 498 C 39 496.019531 39 494.039062 39 492 C 38.011719 492 37.019531 492 36 492 C 36 489.03125 36 486.058594 36 483 C 35.011719 483 34.019531 483 33 483 C 33 480.03125 33 477.058594 33 474 C 32.011719 474 31.019531 474 30 474 C 30 471.03125 30 468.058594 30 465 C 29.011719 465 28.019531 465 27 465 C 27 461.039062 27 457.078125 27 453 C 26.011719 453 25.019531 453 24 453 C 24 450.03125 24 447.058594 24 444 C 23.011719 444 22.019531 444 21 444 C 21 439.050781 21 434.101562 21 429 C 20.011719 429 19.019531 429 18 429 C 18 423.058594 18 417.121094 18 411 C 17.011719 411 16.019531 411 15 411 C 15 402.089844 15 393.179688 15 384 C 14.011719 384 13.019531 384 12 384 C 12 370.140625 12 356.28125 12 342 C 12.988281 342 13.980469 342 15 342 C 15 333.089844 15 324.179688 15 315 C 15.988281 315 16.980469 315 18 315 C 18 309.058594 18 303.121094 18 297 C 18.988281 297 19.980469 297 21 297 C 21 292.050781 21 287.101562 21 282 C 21.988281 282 22.980469 282 24 282 C 24 279.03125 24 276.058594 24 273 C 24.988281 273 25.980469 273 27 273 C 27 269.039062 27 265.078125 27 261 C 27.988281 261 28.980469 261 30 261 C 30 258.03125 30 255.058594 30 252 C 30.988281 252 31.980469 252 33 252 C 33 249.03125 33 246.058594 33 243 C 33.988281 243 34.980469 243 36 243 C 36 240.03125 36 237.058594 36 234 C 36.988281 234 37.980469 234 39 234 C 39 232.019531 39 230.039062 39 228 C 39.988281 228 40.980469 228 42 228 C 42 225.03125 42 222.058594 42 219 C 42.988281 219 43.980469 219 45 219 C 45 217.019531 45 215.039062 45 213 C 45.988281 213 46.980469 213 48 213 C 48 211.019531 48 209.039062 48 207 C 48.988281 207 49.980469 207 51 207 C 51 205.019531 51 203.039062 51 201 C 51.988281 201 52.980469 201 54 201 C 54 199.019531 54 197.039062 54 195 C 54.988281 195 55.980469 195 57 195 C 57 193.019531 57 191.039062 57 189 C 57.988281 189 58.980469 189 60 189 C 60 187.019531 60 185.039062 60 183 C 60.988281 183 61.980469 183 63 183 C 63 182.011719 63 181.019531 63 180 C 63.988281 180 64.980469 180 66 180 C 66 178.019531 66 176.039062 66 174 C 66.988281 174 67.980469 174 69 174 C 69 172.019531 69 170.039062 69 168 C 69.988281 168 70.980469 168 72 168 C 72 167.011719 72 166.019531 72 165 C 72.988281 165 73.980469 165 75 165 C 75 163.019531 75 161.039062 75 159 C 75.988281 159 76.980469 159 78 159 C 78 158.011719 78 157.019531 78 156 C 78.988281 156 79.980469 156 81 156 C 81 154.019531 81 152.039062 81 150 C 81.988281 150 82.980469 150 84 150 C 84 149.011719 84 148.019531 84 147 C 84.988281 147 85.980469 147 87 147 C 87 146.011719 87 145.019531 87 144 C 87.988281 144 88.980469 144 90 144 C 90 142.019531 90 140.039062 90 138 C 90.988281 138 91.980469 138 93 138 C 93 137.011719 93 136.019531 93 135 C 93.988281 135 94.980469 135 96 135 C 96 134.011719 96 133.019531 96 132 C 96.988281 132 97.980469 132 99 132 C 99 131.011719 99 130.019531 99 129 C 99.988281 129 100.980469 129 102 129 C 102 127.019531 102 125.039062 102 123 C 102.988281 123 103.980469 123 105 123 C 105 122.011719 105 121.019531 105 120 C 105.988281 120 106.980469 120 108 120 C 108 119.011719 108 118.019531 108 117 C 108.988281 117 109.980469 117 111 117 C 111 116.011719 111 115.019531 111 114 C 111.988281 114 112.980469 114 114 114 C 114 113.011719 114 112.019531 114 111 C 114.988281 111 115.980469 111 117 111 C 117 110.011719 117 109.019531 117 108 C 117.988281 108 118.980469 108 120 108 C 120 107.011719 120 106.019531 120 105 C 121.980469 105 123.960938 105 126 105 C 126 104.011719 126 103.019531 126 102 C 126.988281 102 127.980469 102 129 102 C 129 101.011719 129 100.019531 129 99 C 129.988281 99 130.980469 99 132 99 C 132 98.011719 132 97.019531 132 96 C 132.988281 96 133.980469 96 135 96 C 135 95.011719 135 94.019531 135 93 C 135.988281 93 136.980469 93 138 93 C 138 92.011719 138 91.019531 138 90 C 139.980469 90 141.960938 90 144 90 C 144 89.011719 144 88.019531 144 87 C 144.988281 87 145.980469 87 147 87 C 147 86.011719 147 85.019531 147 84 C 147.988281 84 148.980469 84 150 84 C 150 83.011719 150 82.019531 150 81 C 151.980469 81 153.960938 81 156 81 C 156 80.011719 156 79.019531 156 78 C 156.988281 78 157.980469 78 159 78 C 159 77.011719 159 76.019531 159 75 C 160.980469 75 162.960938 75 165 75 C 165 74.011719 165 73.019531 165 72 C 166.980469 72 168.960938 72 171 72 C 171 71.011719 171 70.019531 171 69 C 171.988281 69 172.980469 69 174 69 C 174 68.011719 174 67.019531 174 66 C 175.980469 66 177.960938 66 180 66 C 180 65.011719 180 64.019531 180 63 C 181.980469 63 183.960938 63 186 63 C 186 62.011719 186 61.019531 186 60 C 187.980469 60 189.960938 60 192 60 C 192 59.011719 192 58.019531 192 57 C 193.980469 57 195.960938 57 198 57 C 198 56.011719 198 55.019531 198 54 C 199.980469 54 201.960938 54 204 54 C 204 53.011719 204 52.019531 204 51 C 205.980469 51 207.960938 51 210 51 C 210 50.011719 210 49.019531 210 48 C 211.980469 48 213.960938 48 216 48 C 216 47.011719 216 46.019531 216 45 C 217.980469 45 219.960938 45 222 45 C 222 44.011719 222 43.019531 222 42 C 224.96875 42 227.941406 42 231 42 C 231 41.011719 231 40.019531 231 39 C 232.980469 39 234.960938 39 237 39 C 237 38.011719 237 37.019531 237 36 C 239.96875 36 242.941406 36 246 36 C 246 35.011719 246 34.019531 246 33 C 248.96875 33 251.941406 33 255 33 C 255 32.011719 255 31.019531 255 30 C 257.96875 30 260.941406 30 264 30 C 264 29.011719 264 28.019531 264 27 C 267.960938 27 271.921875 27 276 27 C 276 26.011719 276 25.019531 276 24 C 279.960938 24 283.921875 24 288 24 C 288 23.011719 288 22.019531 288 21 C 292.949219 21 297.898438 21 303 21 C 303 20.011719 303 19.019531 303 18 C 309.929688 18 316.859375 18 324 18 C 324 17.011719 324 16.019531 324 15 Z M 324 15 "/>
<path style=" stroke:none;fill-rule:nonzero;fill:rgb(0%,0%,0%);fill-opacity:1;" d="M 324 15 C 348.75 15 373.5 15 399 15 C 399 15.988281 399 16.980469 399 18 C 405.929688 18 412.859375 18 420 18 C 420 18.988281 420 19.980469 420 21 C 424.949219 21 429.898438 21 435 21 C 435 21.988281 435 22.980469 435 24 C 438.960938 24 442.921875 24 447 24 C 447 24.988281 447 25.980469 447 27 C 450.960938 27 454.921875 27 459 27 C 459 27.988281 459 28.980469 459 30 C 461.96875 30 464.941406 30 468 30 C 468 30.988281 468 31.980469 468 33 C 470.96875 33 473.941406 33 477 33 C 477 33.988281 477 34.980469 477 36 C 479.96875 36 482.941406 36 486 36 C 486 36.988281 486 37.980469 486 39 C 487.980469 39 489.960938 39 492 39 C 492 39.988281 492 40.980469 492 42 C 494.96875 42 497.941406 42 501 42 C 501 42.988281 501 43.980469 501 45 C 502.980469 45 504.960938 45 507 45 C 507 45.988281 507 46.980469 507 48 C 508.980469 48 510.960938 48 513 48 C 513 48.988281 513 49.980469 513 51 C 514.980469 51 516.960938 51 519 51 C 519 51.988281 519 52.980469 519 54 C 520.980469 54 522.960938 54 525 54 C 525 54.988281 525 55.980469 525 57 C 526.980469 57 528.960938 57 531 57 C 531 57.988281 531 58.980469 531 60 C 532.980469 60 534.960938 60 537 60 C 537 60.988281 537 61.980469 537 63 C 538.980469 63 540.960938 63 543 63 C 543 63.988281 543 64.980469 543 66 C 544.980469 66 546.960938 66 549 66 C 549 66.988281 549 67.980469 549 69 C 549.988281 69 550.980469 69 552 69 C 552 69.988281 552 70.980469 552 72 C 553.980469 72 555.960938 72 558 72 C 558 72.988281 558 73.980469 558 75 C 559.980469 75 561.960938 75 564 75 C 564 75.988281 564 76.980469 564 78 C 564.988281 78 565.980469 78 567 78 C 567 78.988281 567 79.980469 567 81 C 567.988281 81 568.980469 81 570 81 C 570 81.988281 570 82.980469 570 84 C 571.980469 84 573.960938 84 576 84 C 576 84.988281 576 85.980469 576 87 C 576.988281 87 577.980469 87 579 87 C 579 87.988281 579 88.980469 579 90 C 579.988281 90 580.980469 90 582 90 C 582 90.988281 582 91.980469 582 93 C 583.980469 93 585.960938 93 588 93 C 588 93.988281 588 94.980469 588 96 C 588.988281 96 589.980469 96 591 96 C 591 96.988281 591 97.980469 591 99 C 591.988281 99 592.980469 99 594 99 C 594 99.988281 594 100.980469 594 102 C 594.988281 102 595.980469 102 597 102 C 597 102.988281 597 103.980469 597 105 C 598.980469 105 600.960938 105 603 105 C 603 105.988281 603 106.980469 603 108 C 603.988281 108 604.980469 108 606 108 C 606 108.988281 606 109.980469 606 111 C 606.988281 111 607.980469 111 609 111 C 609 111.988281 609 112.980469 609 114 C 609.988281 114 610.980469 114 612 114 C 612 114.988281 612 115.980469 612 117 C 612.988281 117 613.980469 117 615 117 C 615 117.988281 615 118.980469 615 120 C 615.988281 120 616.980469 120 618 120 C 618 120.988281 618 121.980469 618 123 C 618.988281 123 619.980469 123 621 123 C 621 124.980469 621 126.960938 621 129 C 621.988281 129 622.980469 129 624 129 C 624 129.988281 624 130.980469 624 132 C 624.988281 132 625.980469 132 627 132 C 627 132.988281 627 133.980469 627 135 C 627.988281 135 628.980469 135 630 135 C 630 135.988281 630 136.980469 630 138 C 630.988281 138 631.980469 138 633 138 C 633 139.980469 633 141.960938 633 144 C 633.988281 144 634.980469 144 636 144 C 636 144.988281 636 145.980469 636 147 C 636.988281 147 637.980469 147 639 147 C 639 147.988281 639 148.980469 639 150 C 639.988281 150 640.980469 150 642 150 C 642 151.980469 642 153.960938 642 156 C 642.988281 156 643.980469 156 645 156 C 645 156.988281 645 157.980469 645 159 C 645.988281 159 646.980469 159 648 159 C 648 160.980469 648 162.960938 648 165 C 648.988281 165 649.980469 165 651 165 C 651 165.988281 651 166.980469 651 168 C 651.988281 168 652.980469 168 654 168 C 654 169.980469 654 171.960938 654 174 C 654.988281 174 655.980469 174 657 174 C 657 175.980469 657 177.960938 657 180 C 657.988281 180 658.980469 180 660 180 C 660 180.988281 660 181.980469 660 183 C 660.988281 183 661.980469 183 663 183 C 663 184.980469 663 186.960938 663 189 C 663.988281 189 664.980469 189 666 189 C 666 190.980469 666 192.960938 666 195 C 666.988281 195 667.980469 195 669 195 C 669 196.980469 669 198.960938 669 201 C 669.988281 201 670.980469 201 672 201 C 672 202.980469 672 204.960938 672 207 C 672.988281 207 673.980469 207 675 207 C 675 208.980469 675 210.960938 675 213 C 675.988281 213 676.980469 213 678 213 C 678 214.980469 678 216.960938 678 219 C 678.988281 219 679.980469 219 681 219 C 681 221.96875 681 224.941406 681 228 C 681.988281 228 682.980469 228 684 228 C 684 229.980469 684 231.960938 684 234 C 684.988281 234 685.980469 234 687 234 C 687 236.96875 687 239.941406 687 243 C 687.988281 243 688.980469 243 690 243 C 690 245.96875 690 248.941406 690 252 C 690.988281 252 691.980469 252 693 252 C 693 254.96875 693 257.941406 693 261 C 693.988281 261 694.980469 261 696 261 C 696 264.960938 696 268.921875 696 273 C 696.988281 273 697.980469 273 699 273 C 699 275.96875 699 278.941406 699 282 C 699.988281 282 700.980469 282 702 282 C 702 286.949219 702 291.898438 702 297 C 702.988281 297 703.980469 297 705 297 C 705 302.941406 705 308.878906 705 315 C 705.988281 315 706.980469 315 708 315 C 708 345.691406 708 376.378906 708 408 C 707.011719 408 706.019531 408 705 408 C 705 414.929688 705 421.859375 705 429 C 704.011719 429 703.019531 429 702 429 C 702 432.960938 702 436.921875 702 441 C 701.011719 441 700.019531 441 699 441 C 699 444.960938 699 448.921875 699 453 C 698.011719 453 697.019531 453 696 453 C 696 456.960938 696 460.921875 696 465 C 695.011719 465 694.019531 465 693 465 C 693 467.96875 693 470.941406 693 474 C 692.011719 474 691.019531 474 690 474 C 690 476.96875 690 479.941406 690 483 C 689.011719 483 688.019531 483 687 483 C 687 484.980469 687 486.960938 687 489 C 686.011719 489 685.019531 489 684 489 C 684 491.96875 684 494.941406 684 498 C 683.011719 498 682.019531 498 681 498 C 681 499.980469 681 501.960938 681 504 C 680.011719 504 679.019531 504 678 504 C 678 505.980469 678 507.960938 678 510 C 677.011719 510 676.019531 510 675 510 C 675 511.980469 675 513.960938 675 516 C 674.011719 516 673.019531 516 672 516 C 672 517.980469 672 519.960938 672 522 C 671.011719 522 670.019531 522 669 522 C 669 523.980469 669 525.960938 669 528 C 668.011719 528 667.019531 528 666 528 C 666 529.980469 666 531.960938 666 534 C 665.011719 534 664.019531 534 663 534 C 663 535.980469 663 537.960938 663 540 C 662.011719 540 661.019531 540 660 540 C 660 541.980469 660 543.960938 660 546 C 659.011719 546 658.019531 546 657 546 C 657 547.980469 657 549.960938 657 552 C 656.011719 552 655.019531 552 654 552 C 654 553.980469 654 555.960938 654 558 C 653.011719 558 652.019531 558 651 558 C 651 558.988281 651 559.980469 651 561 C 650.011719 561 649.019531 561 648 561 C 648 562.980469 648 564.960938 648 567 C 647.011719 567 646.019531 567 645 567 C 645 567.988281 645 568.980469 645 570 C 644.011719 570 643.019531 570 642 570 C 642 571.980469 642 573.960938 642 576 C 641.011719 576 640.019531 576 639 576 C 639 576.988281 639 577.980469 639 579 C 638.011719 579 637.019531 579 636 579 C 636 579.988281 636 580.980469 636 582 C 635.011719 582 634.019531 582 633 582 C 633 583.980469 633 585.960938 633 588 C 632.011719 588 631.019531 588 630 588 C 630 588.988281 630 589.980469 630 591 C 629.011719 591 628.019531 591 627 591 C 627 591.988281 627 592.980469 627 594 C 626.011719 594 625.019531 594 624 594 C 624 594.988281 624 595.980469 624 597 C 623.011719 597 622.019531 597 621 597 C 621 597.988281 621 598.980469 621 600 C 620.011719 600 619.019531 600 618 600 C 618 600.988281 618 601.980469 618 603 C 617.011719 603 616.019531 603 615 603 C 615 604.980469 615 606.960938 615 609 C 614.011719 609 613.019531 609 612 609 C 612 609.988281 612 610.980469 612 612 C 611.011719 612 610.019531 612 609 612 C 609 612.988281 609 613.980469 609 615 C 608.011719 615 607.019531 615 606 615 C 606 615.988281 606 616.980469 606 618 C 604.019531 618 602.039062 618 600 618 C 600 618.988281 600 619.980469 600 621 C 599.011719 621 598.019531 621 597 621 C 597 621.988281 597 622.980469 597 624 C 596.011719 624 595.019531 624 594 624 C 594 624.988281 594 625.980469 594 627 C 593.011719 627 592.019531 627 591 627 C 591 627.988281 591 628.980469 591 630 C 590.011719 630 589.019531 630 588 630 C 588 630.988281 588 631.980469 588 633 C 586.019531 633 584.039062 633 582 633 C 582 633.988281 582 634.980469 582 636 C 581.011719 636 580.019531 636 579 636 C 579 636.988281 579 637.980469 579 639 C 578.011719 639 577.019531 639 576 639 C 576 639.988281 576 640.980469 576 642 C 574.019531 642 572.039062 642 570 642 C 570 642.988281 570 643.980469 570 645 C 569.011719 645 568.019531 645 567 645 C 567 645.988281 567 646.980469 567 648 C 565.019531 648 563.039062 648 561 648 C 561 648.988281 561 649.980469 561 651 C 560.011719 651 559.019531 651 558 651 C 558 651.988281 558 652.980469 558 654 C 556.019531 654 554.039062 654 552 654 C 552 654.988281 552 655.980469 552 657 C 551.011719 657 550.019531 657 549 657 C 549 657.988281 549 658.980469 549 660 C 547.019531 660 545.039062 660 543 660 C 543 660.988281 543 661.980469 543 663 C 541.019531 663 539.039062 663 537 663 C 537 663.988281 537 664.980469 537 666 C 535.019531 666 533.039062 666 531 666 C 531 666.988281 531 667.980469 531 669 C 529.019531 669 527.039062 669 525 669 C 525 669.988281 525 670.980469 525 672 C 523.019531 672 521.039062 672 519 672 C 519 672.988281 519 673.980469 519 675 C 517.019531 675 515.039062 675 513 675 C 513 675.988281 513 676.980469 513 678 C 511.019531 678 509.039062 678 507 678 C 507 678.988281 507 679.980469 507 681 C 505.019531 681 503.039062 681 501 681 C 501 681.988281 501 682.980469 501 684 C 498.03125 684 495.058594 684 492 684 C 492 684.988281 492 685.980469 492 687 C 490.019531 687 488.039062 687 486 687 C 486 687.988281 486 688.980469 486 690 C 483.03125 690 480.058594 690 477 690 C 477 690.988281 477 691.980469 477 693 C 474.03125 693 471.058594 693 468 693 C 468 693.988281 468 694.980469 468 696 C 465.03125 696 462.058594 696 459 696 C 459 696.988281 459 697.980469 459 699 C 455.039062 699 451.078125 699 447 699 C 447 699.988281 447 700.980469 447 702 C 443.039062 702 439.078125 702 435 702 C 435 702.988281 435 703.980469 435 705 C 430.050781 705 425.101562 705 420 705 C 420 705.988281 420 706.980469 420 708 C 413.070312 708 406.140625 708 399 708 C 399 708.988281 399 709.980469 399 711 C 374.25 711 349.5 711 324 711 C 324 710.011719 324 709.019531 324 708 C 317.070312 708 310.140625 708 303 708 C 303 707.011719 303 706.019531 303 705 C 298.050781 705 293.101562 705 288 705 C 288 704.011719 288 703.019531 288 702 C 284.039062 702 280.078125 702 276 702 C 276 701.011719 276 700.019531 276 699 C 272.039062 699 268.078125 699 264 699 C 264 698.011719 264 697.019531 264 696 C 261.03125 696 258.058594 696 255 696 C 255 695.011719 255 694.019531 255 693 C 252.03125 693 249.058594 693 246 693 C 246 692.011719 246 691.019531 246 690 C 243.03125 690 240.058594 690 237 690 C 237 689.011719 237 688.019531 237 687 C 235.019531 687 233.039062 687 231 687 C 231 686.011719 231 685.019531 231 684 C 228.03125 684 225.058594 684 222 684 C 222 683.011719 222 682.019531 222 681 C 220.019531 681 218.039062 681 216 681 C 216 680.011719 216 679.019531 216 678 C 214.019531 678 212.039062 678 210 678 C 210 677.011719 210 676.019531 210 675 C 208.019531 675 206.039062 675 204 675 C 204 674.011719 204 673.019531 204 672 C 202.019531 672 200.039062 672 198 672 C 198 671.011719 198 670.019531 198 669 C 196.019531 669 194.039062 669 192 669 C 192 668.011719 192 667.019531 192 666 C 190.019531 666 188.039062 666 186 666 C 186 665.011719 186 664.019531 186 663 C 184.019531 663 182.039062 663 180 663 C 180 662.011719 180 661.019531 180 660 C 178.019531 660 176.039062 660 174 660 C 174 659.011719 174 658.019531 174 657 C 173.011719 657 172.019531 657 171 657 C 171 656.011719 171 655.019531 171 654 C 169.019531 654 167.039062 654 165 654 C 165 653.011719 165 652.019531 165 651 C 164.011719 651 163.019531 651 162 651 C 162 650.011719 162 649.019531 162 648 C 160.019531 648 158.039062 648 156 648 C 156 647.011719 156 646.019531 156 645 C 155.011719 645 154.019531 645 153 645 C 153 644.011719 153 643.019531 153 642 C 151.019531 642 149.039062 642 147 642 C 147 641.011719 147 640.019531 147 639 C 146.011719 639 145.019531 639 144 639 C 144 638.011719 144 637.019531 144 636 C 143.011719 636 142.019531 636 141 636 C 141 635.011719 141 634.019531 141 633 C 139.019531 633 137.039062 633 135 633 C 135 632.011719 135 631.019531 135 630 C 134.011719 630 133.019531 630 132 630 C 132 629.011719 132 628.019531 132 627 C 131.011719 627 130.019531 627 129 627 C 129 626.011719 129 625.019531 129 624 C 128.011719 624 127.019531 624 126 624 C 126 623.011719 126 622.019531 126 621 C 125.011719 621 124.019531 621 123 621 C 123 620.011719 123 619.019531 123 618 C 121.019531 618 119.039062 618 117 618 C 117 617.011719 117 616.019531 117 615 C 116.011719 615 115.019531 615 114 615 C 114 614.011719 114 613.019531 114 612 C 113.011719 612 112.019531 612 111 612 C 111 611.011719 111 610.019531 111 609 C 110.011719 609 109.019531 609 108 609 C 108 608.011719 108 607.019531 108 606 C 107.011719 606 106.019531 606 105 606 C 105 604.019531 105 602.039062 105 600 C 104.011719 600 103.019531 600 102 600 C 102 599.011719 102 598.019531 102 597 C 101.011719 597 100.019531 597 99 597 C 99 596.011719 99 595.019531 99 594 C 98.011719 594 97.019531 594 96 594 C 96 593.011719 96 592.019531 96 591 C 95.011719 591 94.019531 591 93 591 C 93 590.011719 93 589.019531 93 588 C 92.011719 588 91.019531 588 90 588 C 90 586.019531 90 584.039062 90 582 C 89.011719 582 88.019531 582 87 582 C 87 581.011719 87 580.019531 87 579 C 86.011719 579 85.019531 579 84 579 C 84 578.011719 84 577.019531 84 576 C 83.011719 576 82.019531 576 81 576 C 81 574.019531 81 572.039062 81 570 C 80.011719 570 79.019531 570 78 570 C 78 569.011719 78 568.019531 78 567 C 77.011719 567 76.019531 567 75 567 C 75 565.019531 75 563.039062 75 561 C 74.011719 561 73.019531 561 72 561 C 72 560.011719 72 559.019531 72 558 C 71.011719 558 70.019531 558 69 558 C 69 556.019531 69 554.039062 69 552 C 68.011719 552 67.019531 552 66 552 C 66 550.019531 66 548.039062 66 546 C 65.011719 546 64.019531 546 63 546 C 63 544.019531 63 542.039062 63 540 C 62.011719 540 61.019531 540 60 540 C 60 538.019531 60 536.039062 60 534 C 59.011719 534 58.019531 534 57 534 C 57 533.011719 57 532.019531 57 531 C 56.011719 531 55.019531 531 54 531 C 54 529.019531 54 527.039062 54 525 C 53.011719 525 52.019531 525 51 525 C 51 523.019531 51 521.039062 51 519 C 50.011719 519 49.019531 519 48 519 C 48 517.019531 48 515.039062 48 513 C 47.011719 513 46.019531 513 45 513 C 45 510.03125 45 507.058594 45 504 C 44.011719 504 43.019531 504 42 504 C 42 502.019531 42 500.039062 42 498 C 41.011719 498 40.019531 498 39 498 C 39 496.019531 39 494.039062 39 492 C 38.011719 492 37.019531 492 36 492 C 36 489.03125 36 486.058594 36 483 C 35.011719 483 34.019531 483 33 483 C 33 480.03125 33 477.058594 33 474 C 32.011719 474 31.019531 474 30 474 C 30 471.03125 30 468.058594 30 465 C 29.011719 465 28.019531 465 27 465 C 27 461.039062 27 457.078125 27 453 C 26.011719 453 25.019531 453 24 453 C 24 450.03125 24 447.058594 24 444 C 23.011719 444 22.019531 444 21 444 C 21 439.050781 21 434.101562 21 429 C 20.011719 429 19.019531 429 18 429 C 18 423.058594 18 417.121094 18 411 C 17.011719 411 16.019531 411 15 411 C 15 402.089844 15 393.179688 15 384 C 14.011719 384 13.019531 384 12 384 C 12 370.140625 12 356.28125 12 342 C 12.988281 342 13.980469 342 15 342 C 15 333.089844 15 324.179688 15 315 C 15.988281 315 16.980469 315 18 315 C 18 309.058594 18 303.121094 18 297 C 18.988281 297 19.980469 297 21 297 C 21 292.050781 21 287.101562 21 282 C 21.988281 282 22.980469 282 24 282 C 24 279.03125 24 276.058594 24 273 C 24.988281 273 25.980469 273 27 273 C 27 269.039062 27 265.078125 27 261 C 27.988281 261 28.980469 261 30 261 C 30 258.03125 30 255.058594 30 252 C 30.988281 252 31.980469 252 33 252 C 33 249.03125 33 246.058594 33 243 C 33.988281 243 34.980469 243 36 243 C 36 240.03125 36 237.058594 36 234 C 36.988281 234 37.980469 234 39 234 C 39 232.019531 39 230.039062 39 228 C 39.988281 228 40.980469 228 42 228 C 42 225.03125 42 222.058594 42 219 C 42.988281 219 43.980469 219 45 219 C 45 217.019531 45 215.039062 45 213 C 45.988281 213 46.980469 213 48 213 C 48 211.019531 48 209.039062 48 207 C 48.988281 207 49.980469 207 51 207 C 51 205.019531 51 203.039062 51 201 C 51.988281 201 52.980469 201 54 201 C 54 199.019531 54 197.039062 54 195 C 54.988281 195 55.980469 195 57 195 C 57 193.019531 57 191.039062 57 189 C 57.988281 189 58.980469 189 60 189 C 60 187.019531 60 185.039062 60 183 C 60.988281 183 61.980469 183 63 183 C 63 182.011719 63 181.019531 63 180 C 63.988281 180 64.980469 180 66 180 C 66 178.019531 66 176.039062 66 174 C 66.988281 174 67.980469 174 69 174 C 69 172.019531 69 170.039062 69 168 C 69.988281 168 70.980469 168 72 168 C 72 167.011719 72 166.019531 72 165 C 72.988281 165 73.980469 165 75 165 C 75 163.019531 75 161.039062 75 159 C 75.988281 159 76.980469 159 78 159 C 78 158.011719 78 157.019531 78 156 C 78.988281 156 79.980469 156 81 156 C 81 154.019531 81 152.039062 81 150 C 81.988281 150 82.980469 150 84 150 C 84 149.011719 84 148.019531 84 147 C 84.988281 147 85.980469 147 87 147 C 87 146.011719 87 145.019531 87 144 C 87.988281 144 88.980469 144 90 144 C 90 142.019531 90 140.039062 90 138 C 90.988281 138 91.980469 138 93 138 C 93 137.011719 93 136.019531 93 135 C 93.988281 135 94.980469 135 96 135 C 96 134.011719 96 133.019531 96 132 C 96.988281 132 97.980469 132 99 132 C 99 131.011719 99 130.019531 99 129 C 99.988281 129 100.980469 129 102 129 C 102 127.019531 102 125.039062 102 123 C 102.988281 123 103.980469 123 105 123 C 105 122.011719 105 121.019531 105 120 C 105.988281 120 106.980469 120 108 120 C 108 119.011719 108 118.019531 108 117 C 108.988281 117 109.980469 117 111 117 C 111 116.011719 111 115.019531 111 114 C 111.988281 114 112.980469 114 114 114 C 114 113.011719 114 112.019531 114 111 C 114.988281 111 115.980469 111 117 111 C 117 110.011719 117 109.019531 117 108 C 117.988281 108 118.980469 108 120 108 C 120 107.011719 120 106.019531 120 105 C 121.980469 105 123.960938 105 126 105 C 126 104.011719 126 103.019531 126 102 C 126.988281 102 127.980469 102 129 102 C 129 101.011719 129 100.019531 129 99 C 129.988281 99 130.980469 99 132 99 C 132 98.011719 132 97.019531 132 96 C 132.988281 96 133.980469 96 135 96 C 135 95.011719 135 94.019531 135 93 C 135.988281 93 136.980469 93 138 93 C 138 92.011719 138 91.019531 138 90 C 139.980469 90 141.960938 90 144 90 C 144 89.011719 144 88.019531 144 87 C 144.988281 87 145.980469 87 147 87 C 147 86.011719 147 85.019531 147 84 C 147.988281 84 148.980469 84 150 84 C 150 83.011719 150 82.019531 150 81 C 151.980469 81 153.960938 81 156 81 C 156 80.011719 156 79.019531 156 78 C 156.988281 78 157.980469 78 159 78 C 159 77.011719 159 76.019531 159 75 C 160.980469 75 162.960938 75 165 75 C 165 74.011719 165 73.019531 165 72 C 166.980469 72 168.960938 72 171 72 C 171 71.011719 171 70.019531 171 69 C 171.988281 69 172.980469 69 174 69 C 174 68.011719 174 67.019531 174 66 C 175.980469 66 177.960938 66 180 66 C 180 65.011719 180 64.019531 180 63 C 181.980469 63 183.960938 63 186 63 C 186 62.011719 186 61.019531 186 60 C 187.980469 60 189.960938 60 192 60 C 192 59.011719 192 58.019531 192 57 C 193.980469 57 195.960938 57 198 57 C 198 56.011719 198 55.019531 198 54 C 199.980469 54 201.960938 54 204 54 C 204 53.011719 204 52.019531 204 51 C 205.980469 51 207.960938 51 210 51 C 210 50.011719 210 49.019531 210 48 C 211.980469 48 213.960938 48 216 48 C 216 47.011719 216 46.019531 216 45 C 217.980469 45 219.960938 45 222 45 C 222 44.011719 222 43.019531 222 42 C 224.96875 42 227.941406 42 231 42 C 231 41.011719 231 40.019531 231 39 C 232.980469 39 234.960938 39 237 39 C 237 38.011719 237 37.019531 237 36 C 239.96875 36 242.941406 36 246 36 C 246 35.011719 246 34.019531 246 33 C 248.96875 33 251.941406 33 255 33 C 255 32.011719 255 31.019531 255 30 C 257.96875 30 260.941406 30 264 30 C 264 29.011719 264 28.019531 264 27 C 267.960938 27 271.921875 27 276 27 C 276 26.011719 276 25.019531 276 24 C 279.960938 24 283.921875 24 288 24 C 288 23.011719 288 22.019531 288 21 C 292.949219 21 297.898438 21 303 21 C 303 20.011719 303 19.019531 303 18 C 309.929688 18 316.859375 18 324 18 C 324 17.011719 324 16.019531 324 15 Z M 246.75 117.75 C 246.0625 118.074219 245.375 118.398438 244.664062 118.734375 C 224.917969 128.117188 206.632812 139.863281 189.75 153.75 C 189.347656 154.074219 188.945312 154.402344 188.527344 154.738281 C 181.429688 160.503906 174.945312 166.898438 168.46875 173.34375 C 168.050781 173.757812 167.632812 174.171875 167.199219 174.601562 C 161.863281 179.898438 156.921875 185.339844 152.25 191.25 C 151.519531 192.128906 150.78125 193.007812 150.042969 193.882812 C 139.230469 206.890625 130.269531 221.386719 122.25 236.25 C 121.976562 236.753906 121.703125 237.261719 121.421875 237.78125 C 108.179688 262.488281 99.542969 289.523438 94.6875 317.0625 C 94.464844 318.324219 94.464844 318.324219 94.234375 319.613281 C 91.828125 333.964844 91.21875 348.136719 91.265625 362.671875 C 91.265625 363.570312 91.269531 364.464844 91.269531 365.386719 C 91.308594 378.230469 91.535156 390.820312 93.75 403.5 C 93.980469 404.867188 93.980469 404.867188 94.214844 406.261719 C 102.316406 453.65625 122.046875 497.863281 152.792969 534.929688 C 154 536.394531 155.191406 537.863281 156.371094 539.351562 C 156.976562 540.105469 157.582031 540.863281 158.203125 541.640625 C 158.75 542.332031 159.300781 543.023438 159.863281 543.734375 C 160.320312 544.234375 160.777344 544.734375 161.25 545.25 C 161.746094 545.25 162.238281 545.25 162.75 545.25 C 162.933594 545.675781 163.117188 546.101562 163.304688 546.542969 C 164.425781 548.566406 165.753906 549.949219 167.386719 551.585938 C 168.015625 552.21875 168.648438 552.851562 169.296875 553.503906 C 169.964844 554.167969 170.636719 554.832031 171.328125 555.515625 C 172.011719 556.195312 172.695312 556.875 173.398438 557.574219 C 177.320312 561.441406 181.246094 565.144531 185.601562 568.519531 C 187.382812 569.90625 189.078125 571.367188 190.769531 572.859375 C 236.9375 613.15625 300.921875 633.460938 361.546875 633.234375 C 362.699219 633.230469 362.699219 633.230469 363.875 633.230469 C 376.210938 633.195312 388.292969 632.6875 400.5 630.75 C 401.738281 630.558594 401.738281 630.558594 403 630.359375 C 429.914062 626.039062 455.539062 618.035156 480 606 C 480.722656 605.644531 481.445312 605.292969 482.1875 604.929688 C 504.007812 594.136719 524.214844 580.445312 542.144531 563.96875 C 543.589844 562.644531 545.066406 561.375 546.5625 560.109375 C 553.347656 554.195312 559.71875 547.644531 565.5 540.75 C 566.085938 540.082031 566.671875 539.410156 567.273438 538.722656 C 583.039062 520.632812 595.675781 500.113281 606 478.5 C 606.398438 477.664062 606.398438 477.664062 606.808594 476.8125 C 619.832031 449.414062 627.542969 420.125 630.75 390 C 630.859375 389.078125 630.859375 389.078125 630.96875 388.132812 C 631.820312 379.773438 631.683594 371.347656 631.6875 362.953125 C 631.6875 362.113281 631.6875 361.277344 631.691406 360.414062 C 631.683594 347.863281 631.238281 335.660156 629.25 323.25 C 629.046875 321.835938 628.84375 320.417969 628.644531 319 C 621.121094 269.03125 597.628906 222.46875 564.75 184.5 C 564.25 183.914062 563.746094 183.328125 563.230469 182.722656 C 559.1875 178.105469 554.863281 173.761719 550.546875 169.40625 C 549.90625 168.757812 549.265625 168.105469 548.605469 167.4375 C 548.003906 166.832031 547.398438 166.226562 546.777344 165.601562 C 546.230469 165.054688 545.683594 164.503906 545.121094 163.9375 C 543.863281 162.585938 543.863281 162.585938 542.25 162.75 C 542.25 162.253906 542.25 161.761719 542.25 161.25 C 540.800781 159.878906 540.800781 159.878906 538.875 158.390625 C 537.734375 157.484375 537.734375 157.484375 536.570312 156.554688 C 536.15625 156.226562 535.738281 155.894531 535.308594 155.554688 C 533.96875 154.472656 532.648438 153.367188 531.335938 152.257812 C 523.398438 145.585938 514.984375 139.820312 506.25 134.25 C 505.75 133.929688 505.246094 133.609375 504.730469 133.277344 C 463.933594 107.410156 416.386719 93.796875 368.25 92.25 C 367.707031 92.234375 367.164062 92.214844 366.601562 92.195312 C 325.464844 91.09375 283.882812 100.117188 246.75 117.75 Z M 246.75 117.75 "/>
<path style=" stroke:none;fill-rule:nonzero;fill:rgb(13.725491%,51.764709%,77.64706%);fill-opacity:1;" d="M 380.25 108.75 C 385.734375 108.601562 390.992188 109.03125 396.421875 109.78125 C 397.152344 109.875 397.886719 109.972656 398.640625 110.070312 C 403.078125 110.660156 407.394531 111.476562 411.75 112.5 C 413.199219 112.816406 414.644531 113.132812 416.09375 113.445312 C 430.015625 116.527344 443.71875 120.121094 456.75 126 C 457.789062 126.453125 458.828125 126.902344 459.867188 127.351562 C 475.441406 134.132812 490.828125 141.707031 504.75 151.5 C 505.375 151.933594 505.375 151.933594 506.015625 152.378906 C 512.066406 156.585938 517.863281 160.996094 523.5 165.75 C 524.230469 166.339844 524.960938 166.929688 525.710938 167.539062 C 531.890625 172.605469 537.574219 178.164062 543.234375 183.796875 C 543.808594 184.367188 543.808594 184.367188 544.398438 184.949219 C 549.535156 190.046875 554.246094 195.320312 558.75 201 C 559.5 201.90625 560.253906 202.8125 561.007812 203.710938 C 594.613281 244.371094 615.617188 298.945312 616.5 351.75 C 616.515625 352.523438 616.53125 353.300781 616.546875 354.097656 C 617.066406 384.542969 613.707031 414.363281 603.75 443.25 C 603.46875 444.097656 603.1875 444.949219 602.898438 445.820312 C 592.054688 477.546875 575.058594 507.558594 552.183594 532.179688 C 550.78125 533.695312 549.441406 535.234375 548.109375 536.8125 C 541.996094 543.84375 535.199219 550.582031 528 556.5 C 527.613281 556.824219 527.226562 557.152344 526.828125 557.488281 C 514.09375 568.222656 500.480469 577.53125 486 585.75 C 485.429688 586.074219 484.859375 586.398438 484.269531 586.734375 C 473.976562 592.519531 463.1875 597.070312 452.25 601.5 C 451.675781 601.734375 451.105469 601.972656 450.511719 602.214844 C 415.085938 616.734375 372.574219 621.980469 334.59375 616.710938 C 332.859375 616.480469 331.121094 616.296875 329.378906 616.117188 C 312.945312 614.445312 312.945312 614.445312 311.25 612.75 C 310.546875 605.035156 311.5625 597.457031 312.65625 589.828125 C 312.785156 588.917969 312.917969 588.007812 313.050781 587.070312 C 313.554688 583.707031 314.050781 580.4375 315.003906 577.167969 C 316.234375 572.765625 316.707031 568.246094 317.296875 563.71875 C 317.363281 563.214844 317.429688 562.707031 317.5 562.1875 C 318.363281 555.648438 318.972656 549.183594 319.238281 542.59375 C 319.707031 534.9375 321.246094 527.308594 322.5 519.75 C 322.996094 519.75 323.488281 519.75 324 519.75 C 323.980469 519.023438 323.960938 518.292969 323.941406 517.542969 C 323.941406 514.238281 324.429688 511.0625 324.957031 507.804688 C 325.054688 507.183594 325.152344 506.5625 325.253906 505.921875 C 325.460938 504.617188 325.671875 503.3125 325.882812 502.011719 C 326.203125 500.007812 326.519531 498.007812 326.835938 496.007812 C 327.035156 494.734375 327.238281 493.464844 327.441406 492.195312 C 327.535156 491.597656 327.632812 490.996094 327.730469 490.378906 C 328.414062 486.171875 328.414062 486.171875 329.25 484.5 C 345.089844 484.5 360.929688 484.5 377.25 484.5 C 377.25 482.519531 377.25 480.539062 377.25 478.5 C 377.394531 477.277344 377.570312 476.0625 377.800781 474.851562 C 377.921875 474.199219 378.039062 473.542969 378.164062 472.871094 C 378.296875 472.175781 378.425781 471.480469 378.5625 470.765625 C 379.722656 464.375 380.769531 457.976562 381.703125 451.546875 C 382.796875 444.023438 383.941406 436.507812 385.125 429 C 386.289062 421.613281 387.417969 414.226562 388.5 406.828125 C 390.390625 393.941406 392.5 381.09375 394.613281 368.242188 C 395.109375 365.230469 395.601562 362.214844 396.09375 359.203125 C 396.238281 358.316406 396.238281 358.316406 396.386719 357.414062 C 397.65625 349.660156 398.855469 341.902344 399.796875 334.101562 C 399.871094 333.511719 399.945312 332.925781 400.019531 332.324219 C 400.078125 331.832031 400.136719 331.339844 400.195312 330.835938 C 400.59375 328.757812 401.332031 326.757812 402 324.75 C 411.40625 324.75 420.808594 324.75 430.5 324.75 C 431.109375 320.164062 431.109375 320.164062 431.710938 315.578125 C 432.886719 306.855469 434.359375 298.199219 435.75 289.5 C 451.589844 289.5 467.429688 289.5 483.75 289.5 C 483.996094 286.53125 484.246094 283.558594 484.5 280.5 C 484.90625 277.769531 485.335938 275.058594 485.8125 272.34375 C 486.082031 270.773438 486.351562 269.199219 486.617188 267.625 C 486.832031 266.386719 486.832031 266.386719 487.050781 265.121094 C 487.855469 260.4375 488.636719 255.75 489.421875 251.0625 C 489.582031 250.113281 489.738281 249.164062 489.902344 248.183594 C 490.9375 241.96875 491.921875 235.75 492.824219 229.519531 C 493.230469 226.738281 493.699219 224.007812 494.25 221.25 C 451.433594 221.25 408.613281 221.25 364.5 221.25 C 364.996094 218.773438 365.488281 216.300781 366 213.75 C 366.332031 211.230469 366.640625 208.722656 366.914062 206.199219 C 367.074219 204.785156 367.230469 203.371094 367.390625 201.957031 C 367.632812 199.761719 367.875 197.570312 368.117188 195.375 C 368.355469 193.234375 368.59375 191.09375 368.835938 188.949219 C 368.90625 188.304688 368.976562 187.65625 369.046875 186.988281 C 369.453125 183.382812 370.066406 179.910156 370.894531 176.375 C 371.460938 173.78125 371.789062 171.167969 372.109375 168.535156 C 372.183594 167.960938 372.257812 167.386719 372.332031 166.792969 C 372.566406 164.929688 372.800781 163.066406 373.03125 161.203125 C 373.195312 159.898438 373.359375 158.59375 373.527344 157.292969 C 374.308594 151.09375 375.078125 144.890625 375.832031 138.6875 C 377.058594 128.660156 378.277344 118.664062 380.25 108.75 Z M 380.25 108.75 "/>
<path style=" stroke:none;fill-rule:nonzero;fill:rgb(98.823529%,98.823529%,99.215686%);fill-opacity:1;" d="M 271.5 221.25 C 345.007812 221.25 418.515625 221.25 494.25 221.25 C 493.738281 226.859375 493.121094 232.308594 492.195312 237.84375 C 492.066406 238.613281 491.941406 239.382812 491.808594 240.179688 C 491.40625 242.617188 491 245.058594 490.59375 247.5 C 490.195312 249.910156 489.796875 252.320312 489.398438 254.734375 C 489.136719 256.3125 488.875 257.894531 488.613281 259.472656 C 487.726562 264.84375 486.863281 270.21875 486.023438 275.597656 C 485.300781 280.238281 484.523438 284.867188 483.75 289.5 C 467.910156 289.5 452.070312 289.5 435.75 289.5 C 435.503906 292.964844 435.253906 296.429688 435 300 C 434.6875 302.007812 434.335938 304.011719 433.921875 306 C 432.957031 310.789062 432.207031 315.5625 431.570312 320.40625 C 431.25 322.5 431.25 322.5 430.5 324.75 C 421.09375 324.75 411.691406 324.75 402 324.75 C 401.410156 328.300781 400.851562 331.847656 400.324219 335.40625 C 400.140625 336.636719 399.957031 337.863281 399.773438 339.09375 C 399.679688 339.734375 399.582031 340.375 399.484375 341.039062 C 397.53125 354.148438 395.519531 367.25 393.457031 380.347656 C 392.753906 384.8125 392.058594 389.277344 391.359375 393.746094 C 391.125 395.246094 390.890625 396.746094 390.65625 398.25 C 389.953125 402.757812 389.246094 407.261719 388.546875 411.769531 C 388.15625 414.277344 387.765625 416.789062 387.375 419.296875 C 387.296875 419.792969 387.222656 420.285156 387.140625 420.796875 C 385.980469 428.238281 384.785156 435.675781 383.578125 443.109375 C 382.113281 452.125 380.738281 461.148438 379.421875 470.1875 C 378.71875 474.960938 377.984375 479.730469 377.25 484.5 C 361.410156 484.5 345.570312 484.5 329.25 484.5 C 328.082031 492.734375 328.082031 492.734375 326.917969 500.96875 C 326.765625 502.019531 326.617188 503.074219 326.46875 504.128906 C 326.394531 504.648438 326.320312 505.171875 326.246094 505.707031 C 325.574219 510.40625 324.78125 515.066406 324 519.75 C 300.984375 519.75 277.964844 519.75 254.25 519.75 C 255.648438 507.171875 257.234375 494.589844 259.710938 482.171875 C 260.503906 477.871094 261.097656 473.546875 261.683594 469.210938 C 262.125 465.980469 262.621094 462.769531 263.226562 459.5625 C 264.148438 454.601562 264.792969 449.609375 265.453125 444.609375 C 266.367188 437.832031 267.375 431.125 268.710938 424.421875 C 269.503906 420.121094 270.097656 415.796875 270.683594 411.460938 C 271.125 408.230469 271.621094 405.019531 272.226562 401.8125 C 273.148438 396.851562 273.792969 391.859375 274.453125 386.859375 C 275.367188 380.082031 276.375 373.375 277.710938 366.671875 C 278.511719 362.324219 279.101562 357.949219 279.710938 353.570312 C 280.164062 350.308594 280.632812 347.0625 281.25 343.828125 C 282.414062 337.496094 283.296875 331.117188 284.25 324.75 C 259.003906 324.75 233.761719 324.75 207.75 324.75 C 207.75 321.300781 207.785156 318.628906 208.351562 315.339844 C 208.480469 314.582031 208.609375 313.824219 208.742188 313.042969 C 208.949219 311.878906 208.949219 311.878906 209.15625 310.6875 C 209.285156 309.921875 209.417969 309.15625 209.550781 308.367188 C 210.1875 304.648438 210.851562 300.933594 211.535156 297.222656 C 212.1875 293.65625 212.757812 290.085938 213.28125 286.5 C 213.371094 285.882812 213.464844 285.265625 213.558594 284.632812 C 214.140625 280.707031 214.714844 276.78125 215.285156 272.855469 C 215.417969 271.941406 215.554688 271.023438 215.691406 270.082031 C 215.957031 268.265625 216.21875 266.453125 216.480469 264.636719 C 216.601562 263.808594 216.722656 262.976562 216.851562 262.121094 C 216.957031 261.382812 217.066406 260.640625 217.175781 259.875 C 217.5 258 217.5 258 218.25 255.75 C 234.089844 255.75 249.929688 255.75 266.25 255.75 C 266.25 253.769531 266.25 251.789062 266.25 249.75 C 266.535156 247.773438 266.851562 245.847656 267.234375 243.890625 C 267.441406 242.785156 267.648438 241.675781 267.851562 240.570312 C 267.960938 239.992188 268.066406 239.417969 268.175781 238.824219 C 268.855469 234.996094 269.421875 231.148438 269.996094 227.300781 C 270.671875 222.910156 270.671875 222.910156 271.5 221.25 Z M 271.5 221.25 "/>
<path style=" stroke:none;fill-rule:nonzero;fill:rgb(98.823529%,98.823529%,98.823529%);fill-opacity:1;" d="M 368.25 92.25 C 369.042969 92.28125 369.832031 92.3125 370.648438 92.34375 C 390.859375 93.226562 410.960938 95.886719 430.5 101.25 C 431.265625 101.457031 432.035156 101.664062 432.824219 101.878906 C 471.300781 112.40625 507.066406 131.171875 537.246094 157.292969 C 539.167969 158.980469 539.167969 158.980469 541.019531 160.261719 C 541.425781 160.589844 541.832031 160.914062 542.25 161.25 C 542.25 161.746094 542.25 162.238281 542.25 162.75 C 542.664062 162.917969 543.074219 163.089844 543.5 163.261719 C 545.785156 164.550781 547.386719 166.191406 549.242188 168.042969 C 549.621094 168.421875 550 168.800781 550.390625 169.1875 C 551.195312 169.992188 551.996094 170.792969 552.796875 171.601562 C 553.992188 172.804688 555.199219 174.003906 556.40625 175.199219 C 561.269531 180.058594 565.726562 185.105469 570 190.5 C 570.714844 191.355469 571.429688 192.207031 572.152344 193.054688 C 585.257812 208.726562 596.511719 226.816406 605.25 245.25 C 605.648438 246.085938 605.648438 246.085938 606.058594 246.9375 C 621.390625 279.191406 631.484375 315.910156 631.652344 351.769531 C 631.65625 352.535156 631.664062 353.296875 631.667969 354.085938 C 631.679688 356.542969 631.6875 358.996094 631.6875 361.453125 C 631.6875 362.714844 631.6875 362.714844 631.6875 364 C 631.675781 376.804688 631.308594 389.335938 629.25 402 C 629.113281 402.851562 628.976562 403.699219 628.835938 404.574219 C 627.859375 410.496094 626.738281 416.378906 625.5 422.25 C 625.363281 422.902344 625.226562 423.554688 625.085938 424.226562 C 620.316406 446.296875 611.875 467.652344 601.460938 487.628906 C 600.753906 488.992188 600.058594 490.363281 599.359375 491.734375 C 589.699219 510.542969 577.042969 527.816406 562.742188 543.34375 C 561.3125 544.910156 559.929688 546.492188 558.5625 548.109375 C 556.011719 551.042969 553.289062 553.792969 550.546875 556.546875 C 550.117188 556.980469 549.6875 557.414062 549.242188 557.859375 C 546.035156 561.054688 542.691406 564.058594 539.25 567 C 538.765625 567.414062 538.285156 567.828125 537.785156 568.253906 C 530.078125 574.792969 522.132812 580.851562 513.75 586.5 C 513.226562 586.851562 512.707031 587.207031 512.167969 587.570312 C 475.261719 612.359375 432.714844 627.710938 388.5 632.25 C 387.5625 632.355469 387.5625 632.355469 386.605469 632.464844 C 378.652344 633.261719 370.65625 633.183594 362.671875 633.1875 C 361.886719 633.1875 361.105469 633.1875 360.296875 633.1875 C 347.550781 633.175781 335.117188 632.683594 322.5 630.75 C 321.261719 630.5625 321.261719 630.5625 320 630.371094 C 271.886719 622.832031 224.898438 602.605469 188.09375 570.390625 C 186.382812 568.9375 184.621094 567.546875 182.867188 566.140625 C 178.34375 562.453125 174.214844 558.4375 170.109375 554.296875 C 169.386719 553.582031 168.667969 552.867188 167.945312 552.152344 C 166.9375 551.136719 166.9375 551.136719 165.90625 550.105469 C 165.296875 549.496094 164.691406 548.886719 164.066406 548.257812 C 162.75 546.75 162.75 546.75 162.75 545.25 C 162.253906 545.25 161.761719 545.25 161.25 545.25 C 160.21875 544.117188 159.246094 542.9375 158.296875 541.734375 C 156.117188 539 153.917969 536.320312 151.609375 533.695312 C 142.304688 523.027344 134.578125 510.984375 127.5 498.75 C 126.964844 497.824219 126.964844 497.824219 126.417969 496.882812 C 116.480469 479.597656 108.796875 461.484375 102.75 442.5 C 102.535156 441.839844 102.320312 441.175781 102.101562 440.496094 C 98.234375 428.410156 95.863281 415.992188 93.75 403.5 C 93.613281 402.71875 93.476562 401.9375 93.335938 401.132812 C 89.144531 376.074219 89.398438 347.511719 93.75 322.5 C 93.898438 321.601562 94.046875 320.703125 94.203125 319.773438 C 97.65625 299.28125 103.148438 279.5 111 260.25 C 111.46875 259.101562 111.46875 259.101562 111.945312 257.925781 C 116.789062 246.191406 122.476562 235.136719 129 224.25 C 129.515625 223.386719 129.515625 223.386719 130.039062 222.507812 C 136.652344 211.507812 144.152344 201.199219 152.25 191.25 C 152.582031 190.839844 152.910156 190.429688 153.25 190.007812 C 159.015625 182.917969 165.402344 176.441406 171.84375 169.96875 C 172.257812 169.550781 172.671875 169.132812 173.101562 168.699219 C 178.398438 163.363281 183.839844 158.421875 189.75 153.75 C 190.628906 153.019531 191.507812 152.28125 192.382812 151.542969 C 205.386719 140.734375 219.875 131.738281 234.75 123.75 C 235.394531 123.402344 236.035156 123.058594 236.699219 122.699219 C 276.464844 101.484375 323.160156 90.472656 368.25 92.25 Z M 319.5 111 C 318.152344 111.203125 316.804688 111.398438 315.457031 111.59375 C 309.625 112.460938 303.980469 113.664062 298.332031 115.390625 C 296.238281 116.027344 294.148438 116.617188 292.035156 117.179688 C 253.105469 127.605469 213.832031 148.792969 185.671875 178.078125 C 184.371094 179.378906 183 180.550781 181.59375 181.734375 C 178.621094 184.300781 176.042969 187.121094 173.453125 190.066406 C 172.375 191.292969 171.277344 192.503906 170.164062 193.699219 C 164.738281 199.53125 159.988281 205.859375 155.25 212.25 C 154.863281 212.769531 154.476562 213.285156 154.078125 213.820312 C 147.71875 222.390625 142.375 231.394531 137.25 240.75 C 136.917969 241.34375 136.589844 241.9375 136.25 242.546875 C 130.78125 252.375 126.359375 262.539062 122.25 273 C 122.03125 273.554688 121.808594 274.109375 121.582031 274.679688 C 102.347656 323.65625 100.097656 384.40625 116.382812 434.59375 C 117.050781 436.65625 117.6875 438.726562 118.328125 440.792969 C 127.089844 468.640625 140.855469 495.351562 159 518.25 C 159.589844 519.003906 159.589844 519.003906 160.195312 519.769531 C 171.027344 533.5 183.011719 547.1875 196.820312 557.988281 C 198.882812 559.601562 200.847656 561.304688 202.828125 563.015625 C 222.886719 579.675781 247.546875 594.109375 272.492188 602.09375 C 274.644531 602.800781 276.679688 603.578125 278.769531 604.445312 C 283.070312 606.1875 287.464844 607.449219 291.9375 608.671875 C 292.761719 608.898438 293.589844 609.128906 294.4375 609.363281 C 300.257812 610.957031 306.070312 612.363281 312 613.5 C 312.535156 613.613281 313.070312 613.730469 313.625 613.847656 C 318.636719 614.902344 323.648438 615.582031 328.734375 616.171875 C 329.511719 616.265625 330.292969 616.359375 331.09375 616.457031 C 386.636719 623.027344 443.078125 611.382812 491.25 582.75 C 491.734375 582.464844 492.21875 582.175781 492.714844 581.882812 C 506.347656 573.734375 519.035156 564.273438 530.765625 553.570312 C 532.242188 552.234375 533.746094 550.941406 535.265625 549.65625 C 542.308594 543.519531 549.070312 536.71875 555 529.5 C 555.332031 529.101562 555.667969 528.703125 556.011719 528.292969 C 573.402344 507.523438 587.035156 484.613281 597.75 459.75 C 597.976562 459.230469 598.203125 458.710938 598.433594 458.179688 C 601.902344 450.160156 604.390625 441.898438 606.75 433.5 C 606.917969 432.898438 607.089844 432.300781 607.261719 431.683594 C 623.980469 371.890625 618.097656 308.816406 591.75 252.75 C 591.460938 252.132812 591.171875 251.511719 590.871094 250.875 C 575.546875 218.457031 551.316406 186.914062 522.75 165 C 521.882812 164.292969 521.015625 163.582031 520.152344 162.871094 C 510.378906 154.84375 499.9375 148.070312 489 141.75 C 488.453125 141.433594 487.910156 141.113281 487.347656 140.785156 C 468.414062 129.820312 448.1875 121.652344 427.078125 115.96875 C 425.6875 115.59375 425.6875 115.59375 424.269531 115.210938 C 419.003906 113.835938 413.792969 112.78125 408.398438 112.054688 C 406.5 111.75 406.5 111.75 405 111 C 403.8125 110.792969 402.617188 110.617188 401.421875 110.460938 C 400.695312 110.363281 399.964844 110.269531 399.210938 110.171875 C 398.445312 110.074219 397.679688 109.976562 396.890625 109.875 C 396.15625 109.777344 395.421875 109.679688 394.664062 109.578125 C 383.511719 108.136719 372.453125 107.792969 361.21875 107.765625 C 360.441406 107.761719 359.664062 107.761719 358.863281 107.757812 C 345.472656 107.75 332.707031 108.78125 319.5 111 Z M 319.5 111 "/>
<path style=" stroke:none;fill-rule:nonzero;fill:rgb(96.862745%,58.039218%,11.764706%);fill-opacity:1;" d="M 279.75 231 C 346.824219 231 413.894531 231 483 231 C 482.15625 240.277344 482.15625 240.277344 481.4375 244.476562 C 481.203125 245.851562 481.203125 245.851562 480.964844 247.253906 C 480.800781 248.203125 480.636719 249.148438 480.46875 250.125 C 480.128906 252.117188 479.792969 254.105469 479.453125 256.097656 C 479.292969 257.0625 479.128906 258.023438 478.960938 259.015625 C 478.246094 263.253906 477.582031 267.5 476.925781 271.746094 C 476.507812 274.433594 476.035156 277.082031 475.5 279.75 C 450.007812 279.75 424.515625 279.75 398.25 279.75 C 398.003906 283.460938 397.753906 287.175781 397.5 291 C 397.058594 294.035156 396.59375 297.03125 396.046875 300.046875 C 395.773438 301.613281 395.503906 303.175781 395.234375 304.742188 C 395.105469 305.480469 394.976562 306.21875 394.84375 306.976562 C 394.417969 309.488281 394.050781 312.003906 393.703125 314.53125 C 393.191406 318.246094 392.597656 321.945312 391.96875 325.640625 C 391.019531 331.238281 390.167969 336.851562 389.34375 342.46875 C 388.207031 350.210938 387.035156 357.941406 385.828125 365.671875 C 385.746094 366.1875 385.667969 366.703125 385.582031 367.238281 C 384.695312 372.90625 383.792969 378.574219 382.828125 384.234375 C 381.777344 390.402344 380.875 396.59375 379.96875 402.785156 C 378.953125 409.671875 377.902344 416.546875 376.828125 423.421875 C 376.707031 424.195312 376.707031 424.195312 376.582031 424.988281 C 375.617188 431.15625 374.625 437.324219 373.570312 443.480469 C 372.546875 449.539062 371.691406 455.625 370.832031 461.710938 C 370.714844 462.535156 370.597656 463.359375 370.472656 464.207031 C 370.371094 464.941406 370.265625 465.671875 370.160156 466.425781 C 369.664062 469.226562 368.941406 471.988281 368.25 474.75 C 351.914062 474.75 335.578125 474.75 318.75 474.75 C 319.59375 467.15625 319.59375 467.15625 320.15625 463.527344 C 320.28125 462.714844 320.40625 461.902344 320.539062 461.066406 C 320.671875 460.203125 320.804688 459.34375 320.945312 458.457031 C 321.085938 457.542969 321.226562 456.632812 321.375 455.691406 C 321.671875 453.757812 321.972656 451.828125 322.277344 449.894531 C 322.726562 447 323.175781 444.109375 323.625 441.214844 C 324.964844 432.582031 326.328125 423.953125 327.78125 415.339844 C 329.394531 405.785156 330.824219 396.207031 332.25 386.625 C 333.785156 376.285156 335.363281 365.960938 337.101562 355.65625 C 338.703125 346.136719 340.132812 336.589844 341.578125 327.046875 C 341.859375 325.207031 342.136719 323.367188 342.417969 321.527344 C 344.535156 307.601562 346.640625 293.675781 348.75 279.75 C 323.503906 279.75 298.261719 279.75 272.25 279.75 C 272.753906 273.714844 273.367188 267.886719 274.359375 261.9375 C 274.488281 261.140625 274.621094 260.347656 274.753906 259.527344 C 275.027344 257.863281 275.300781 256.199219 275.578125 254.535156 C 276.003906 251.984375 276.421875 249.4375 276.835938 246.886719 C 277.105469 245.261719 277.371094 243.640625 277.640625 242.015625 C 277.828125 240.875 277.828125 240.875 278.019531 239.710938 C 278.136719 239.003906 278.253906 238.300781 278.375 237.570312 C 278.53125 236.644531 278.53125 236.644531 278.6875 235.695312 C 278.976562 234.117188 279.359375 232.558594 279.75 231 Z M 279.75 231 "/>
<path style=" stroke:none;fill-rule:nonzero;fill:rgb(0.392157%,68.235296%,93.725491%);fill-opacity:1;" d="M 226.5 266.25 C 238.875 266.25 251.25 266.25 264 266.25 C 263.292969 274.03125 262.160156 281.773438 261 289.5 C 286.246094 289.5 311.488281 289.5 337.5 289.5 C 335.773438 304.1875 335.773438 304.1875 335.054688 308.921875 C 334.96875 309.484375 334.886719 310.042969 334.800781 310.621094 C 334.53125 312.421875 334.257812 314.226562 333.984375 316.03125 C 333.839844 316.988281 333.839844 316.988281 333.695312 317.960938 C 332.070312 328.753906 330.324219 339.519531 328.542969 350.285156 C 326.617188 361.964844 324.890625 373.660156 323.28125 385.386719 C 322.390625 391.839844 321.359375 398.230469 320.121094 404.632812 C 318.703125 412.140625 317.625 419.714844 316.453125 427.265625 C 316.1875 428.972656 315.921875 430.675781 315.65625 432.382812 C 314.527344 439.605469 313.410156 446.828125 312.300781 454.050781 C 311.832031 457.078125 311.355469 460.101562 310.875 463.125 C 310.09375 468.058594 309.324219 472.992188 308.570312 477.929688 C 308.230469 480.121094 307.863281 482.3125 307.5 484.5 C 311.460938 484.5 315.421875 484.5 319.5 484.5 C 318.984375 488.011719 318.464844 491.523438 317.9375 495.03125 C 317.761719 496.226562 317.585938 497.421875 317.410156 498.617188 C 317.15625 500.335938 316.902344 502.046875 316.644531 503.761719 C 316.566406 504.300781 316.488281 504.835938 316.40625 505.390625 C 315.835938 509.164062 315.835938 509.164062 315 510 C 313.480469 510.070312 311.960938 510.089844 310.441406 510.085938 C 308.976562 510.085938 308.976562 510.085938 307.480469 510.085938 C 306.410156 510.082031 305.335938 510.078125 304.261719 510.074219 C 303.171875 510.070312 302.078125 510.070312 300.988281 510.070312 C 298.109375 510.066406 295.230469 510.058594 292.351562 510.050781 C 289.414062 510.042969 286.476562 510.039062 283.542969 510.035156 C 277.777344 510.027344 272.015625 510.015625 266.25 510 C 266.648438 502.800781 267.464844 495.800781 268.640625 488.683594 C 268.804688 487.660156 268.972656 486.632812 269.136719 485.609375 C 269.488281 483.433594 269.839844 481.257812 270.195312 479.082031 C 270.761719 475.617188 271.320312 472.152344 271.878906 468.6875 C 271.972656 468.101562 272.066406 467.515625 272.164062 466.914062 C 272.355469 465.730469 272.546875 464.546875 272.738281 463.363281 C 273.023438 461.578125 273.3125 459.792969 273.601562 458.007812 C 275.3125 447.390625 276.980469 436.769531 278.625 426.140625 C 278.757812 425.28125 278.890625 424.421875 279.027344 423.535156 C 281.355469 408.492188 283.652344 393.445312 285.949219 378.394531 C 287.304688 369.515625 288.664062 360.632812 290.019531 351.753906 C 290.242188 350.289062 290.46875 348.824219 290.691406 347.363281 C 291.460938 342.335938 292.230469 337.308594 293.007812 332.285156 C 293.230469 330.835938 293.449219 329.390625 293.671875 327.945312 C 293.96875 326.007812 294.269531 324.070312 294.570312 322.132812 C 294.695312 321.292969 294.695312 321.292969 294.824219 320.4375 C 295.414062 316.671875 295.414062 316.671875 296.25 315 C 270.757812 315 245.265625 315 219 315 C 220.332031 304.78125 221.671875 294.605469 223.300781 284.4375 C 223.601562 282.558594 223.898438 280.679688 224.195312 278.800781 C 224.386719 277.589844 224.578125 276.382812 224.773438 275.171875 C 224.859375 274.617188 224.945312 274.0625 225.035156 273.492188 C 225.429688 271.039062 225.894531 268.664062 226.5 266.25 Z M 226.5 266.25 "/>
<path style=" stroke:none;fill-rule:nonzero;fill:rgb(1.960784%,68.627453%,93.725491%);fill-opacity:1;" d="M 407.25 289.5 C 413.4375 289.5 419.625 289.5 426 289.5 C 425.480469 298.09375 424.265625 306.484375 423 315 C 416.566406 315 410.128906 315 403.5 315 C 404.277344 306.269531 405.210938 298.027344 407.25 289.5 Z M 407.25 289.5 "/>
<path style=" stroke:none;fill-rule:nonzero;fill:rgb(48.235294%,55.29412%,63.921571%);fill-opacity:1;" d="M 378 108.75 C 378.742188 108.75 379.484375 108.75 380.25 108.75 C 379.042969 119.28125 377.730469 129.800781 376.402344 140.320312 C 376.023438 143.328125 375.644531 146.335938 375.269531 149.34375 C 374.859375 152.648438 374.441406 155.953125 374.027344 159.261719 C 373.863281 160.542969 373.703125 161.828125 373.542969 163.109375 C 373.320312 164.917969 373.089844 166.726562 372.859375 168.535156 C 372.765625 169.328125 372.765625 169.328125 372.664062 170.136719 C 372.324219 172.792969 371.878906 175.371094 371.261719 177.976562 C 370.34375 181.980469 369.882812 186.011719 369.421875 190.09375 C 369.230469 191.730469 369.035156 193.371094 368.84375 195.011719 C 368.542969 197.570312 368.246094 200.132812 367.953125 202.691406 C 367.667969 205.179688 367.371094 207.667969 367.078125 210.15625 C 366.992188 210.921875 366.90625 211.691406 366.816406 212.480469 C 366.734375 213.195312 366.648438 213.90625 366.558594 214.644531 C 366.488281 215.269531 366.414062 215.894531 366.339844 216.539062 C 366 218.25 366 218.25 364.5 221.25 C 333.808594 221.25 303.121094 221.25 271.5 221.25 C 271.5 221.003906 271.5 220.753906 271.5 220.5 C 301.941406 220.5 332.386719 220.5 363.75 220.5 C 363.75 216.539062 363.75 212.578125 363.75 208.5 C 364.773438 203.566406 364.773438 203.566406 365.398438 201.1875 C 366.492188 196.75 367.011719 192.21875 367.59375 187.6875 C 367.691406 186.945312 367.691406 186.945312 367.792969 186.183594 C 368.5 180.796875 369.128906 175.449219 369.328125 170.015625 C 369.730469 160.558594 371.523438 151.1875 373.007812 141.851562 C 373.734375 137.273438 374.4375 132.691406 375.140625 128.109375 C 375.261719 127.316406 375.386719 126.523438 375.511719 125.707031 C 376.382812 120.0625 377.21875 114.410156 378 108.75 Z M 378 108.75 "/>
<path style=" stroke:none;fill-rule:nonzero;fill:rgb(48.627451%,55.29412%,63.921571%);fill-opacity:1;" d="M 328.5 486 C 328.746094 486 328.996094 486 329.25 486 C 328.988281 493.445312 328.417969 500.726562 327.226562 508.082031 C 326.011719 515.695312 325.15625 523.355469 324.269531 531.011719 C 324.207031 531.539062 324.144531 532.066406 324.082031 532.609375 C 323.910156 534.0625 323.742188 535.511719 323.574219 536.960938 C 323.25 539.25 323.25 539.25 322.5 541.5 C 322.296875 543.648438 322.167969 545.796875 322.035156 547.953125 C 321.8125 549.953125 321.484375 551.742188 321.019531 553.691406 C 320.152344 557.433594 319.804688 561.15625 319.5 564.984375 C 319.101562 569.894531 318.496094 574.695312 317.65625 579.546875 C 316.964844 583.738281 316.433594 587.949219 315.894531 592.160156 C 315.703125 593.671875 315.507812 595.1875 315.308594 596.699219 C 314.589844 602.292969 313.953125 607.878906 313.5 613.5 C 312.757812 613.253906 312.015625 613.003906 311.25 612.75 C 310.816406 604.96875 311.546875 597.535156 312.65625 589.828125 C 312.785156 588.917969 312.917969 588.007812 313.050781 587.070312 C 313.554688 583.707031 314.050781 580.4375 315.003906 577.167969 C 316.234375 572.765625 316.707031 568.246094 317.296875 563.71875 C 317.363281 563.214844 317.429688 562.707031 317.5 562.1875 C 318.363281 555.648438 318.972656 549.183594 319.238281 542.59375 C 319.707031 534.9375 321.246094 527.308594 322.5 519.75 C 322.996094 519.75 323.488281 519.75 324 519.75 C 323.980469 519.023438 323.960938 518.296875 323.9375 517.546875 C 323.941406 514.222656 324.445312 511.027344 324.984375 507.753906 C 325.085938 507.128906 325.183594 506.503906 325.285156 505.859375 C 325.605469 503.878906 325.925781 501.902344 326.25 499.921875 C 326.46875 498.574219 326.683594 497.222656 326.898438 495.875 C 327.429688 492.582031 327.964844 489.289062 328.5 486 Z M 328.5 486 "/>
<path style=" stroke:none;fill-rule:nonzero;fill:rgb(84.705883%,68.235296%,54.901963%);fill-opacity:1;" d="M 366 198.75 C 366.246094 198.75 366.496094 198.75 366.75 198.75 C 366.75 206.289062 365.519531 213.78125 364.5 221.25 C 333.808594 221.25 303.121094 221.25 271.5 221.25 C 271.5 221.003906 271.5 220.753906 271.5 220.5 C 301.941406 220.5 332.386719 220.5 363.75 220.5 C 363.75 216.539062 363.75 212.578125 363.75 208.5 C 364.417969 205.15625 365.066406 202 366 198.75 Z M 366 198.75 "/>
<path style=" stroke:none;fill-rule:nonzero;fill:rgb(71.372551%,59.607846%,50.196081%);fill-opacity:1;" d="M 375.75 126 C 375.996094 126 376.246094 126 376.5 126 C 376.640625 129.609375 376.402344 132.917969 375.8125 136.484375 C 375.011719 141.523438 374.445312 146.566406 373.921875 151.640625 C 373.066406 159.652344 371.960938 167.574219 370.5 175.5 C 370.253906 175.5 370.003906 175.5 369.75 175.5 C 369.519531 167.195312 370.128906 159.359375 371.484375 151.171875 C 371.65625 150.085938 371.828125 149 372 147.914062 C 373.164062 140.59375 374.382812 133.285156 375.75 126 Z M 375.75 126 "/>
<path style=" stroke:none;fill-rule:nonzero;fill:rgb(73.725492%,60.392159%,48.627451%);fill-opacity:1;" d="M 315.75 574.5 C 315.996094 574.5 316.246094 574.5 316.5 574.5 C 316.773438 581.210938 315.554688 587.75 314.566406 594.371094 C 313.652344 600.828125 313.316406 606.984375 313.5 613.5 C 312.757812 613.253906 312.015625 613.003906 311.25 612.75 C 310.816406 604.96875 311.546875 597.535156 312.65625 589.828125 C 312.785156 588.917969 312.917969 588.007812 313.050781 587.070312 C 313.695312 582.777344 314.402344 578.632812 315.75 574.5 Z M 315.75 574.5 "/>
<path style=" stroke:none;fill-rule:nonzero;fill:rgb(51.372552%,59.215689%,69.803923%);fill-opacity:1;" d="M 328.5 486 C 328.746094 486 328.996094 486 329.25 486 C 328.960938 494.273438 328.179688 502.316406 326.875 510.488281 C 326.15625 515.003906 325.566406 519.53125 324.984375 524.0625 C 324.886719 524.828125 324.789062 525.589844 324.6875 526.378906 C 324.457031 528.167969 324.226562 529.960938 324 531.75 C 323.753906 531.75 323.503906 531.75 323.25 531.75 C 322.785156 521.636719 324.222656 512.078125 325.875 502.125 C 326.128906 500.554688 326.382812 498.984375 326.632812 497.410156 C 327.246094 493.605469 327.871094 489.800781 328.5 486 Z M 328.5 486 "/>
<path style=" stroke:none;fill-rule:nonzero;fill:rgb(46.666667%,54.901963%,65.098041%);fill-opacity:1;" d="M 369 176.25 C 369.246094 176.25 369.496094 176.25 369.75 176.25 C 370.011719 184.914062 369.351562 193.261719 368.230469 201.847656 C 367.964844 203.890625 367.714844 205.929688 367.464844 207.972656 C 367.300781 209.28125 367.132812 210.585938 366.96875 211.890625 C 366.890625 212.496094 366.816406 213.105469 366.742188 213.730469 C 366.375 216.476562 366.0625 218.15625 364.5 220.5 C 364.605469 218.71875 364.714844 216.9375 364.828125 215.15625 C 364.859375 214.65625 364.886719 214.160156 364.917969 213.644531 C 365.0625 211.398438 365.257812 209.203125 365.632812 206.984375 C 366.066406 204.34375 366.171875 201.753906 366.28125 199.078125 C 366.652344 191.398438 367.8125 183.839844 369 176.25 Z M 369 176.25 "/>
<path style=" stroke:none;fill-rule:nonzero;fill:rgb(77.254903%,60.784316%,45.490196%);fill-opacity:1;" d="M 322.5 519.75 C 322.746094 519.75 322.996094 519.75 323.25 519.75 C 323.6875 528.695312 322.496094 536.59375 320.25 545.25 C 320.003906 545.25 319.753906 545.25 319.5 545.25 C 319.28125 539.753906 320.121094 534.539062 321 529.125 C 321.144531 528.222656 321.285156 527.320312 321.433594 526.390625 C 321.785156 524.175781 322.140625 521.960938 322.5 519.75 Z M 322.5 519.75 "/>
<path style=" stroke:none;fill-rule:nonzero;fill:rgb(73.333335%,60.392159%,49.019608%);fill-opacity:1;" d="M 366 198.75 C 366.246094 198.75 366.496094 198.75 366.75 198.75 C 366.890625 203.726562 366.339844 208.453125 365.625 213.375 C 365.519531 214.136719 365.410156 214.894531 365.300781 215.679688 C 365.035156 217.535156 364.769531 219.394531 364.5 221.25 C 364.003906 221.003906 363.511719 220.753906 363 220.5 C 363.28125 212.976562 364.015625 206.042969 366 198.75 Z M 366 198.75 "/>
<path style=" stroke:none;fill-rule:nonzero;fill:rgb(62.352943%,58.039218%,56.078434%);fill-opacity:1;" d="M 318.75 552 C 318.996094 552 319.246094 552 319.5 552 C 319.765625 559.660156 319.382812 566.328125 317.25 573.75 C 317.003906 573.75 316.753906 573.75 316.5 573.75 C 316.363281 568.890625 316.890625 564.300781 317.625 559.5 C 317.730469 558.777344 317.839844 558.050781 317.949219 557.304688 C 318.214844 555.535156 318.480469 553.769531 318.75 552 Z M 318.75 552 "/>
<path style=" stroke:none;fill-rule:nonzero;fill:rgb(62.352943%,58.039218%,56.078434%);fill-opacity:1;" d="M 369 176.25 C 369.246094 176.25 369.496094 176.25 369.75 176.25 C 370.015625 183.910156 369.632812 190.578125 367.5 198 C 367.253906 198 367.003906 198 366.75 198 C 366.613281 193.140625 367.140625 188.550781 367.875 183.75 C 367.980469 183.027344 368.089844 182.300781 368.199219 181.554688 C 368.464844 179.785156 368.730469 178.019531 369 176.25 Z M 369 176.25 "/>
</g>
</svg>
